<?xml version="1.0" encoding="UTF-8"?>
<!DOCTYPE svg PUBLIC "-//W3C//DTD SVG 1.1//EN" "http://www.w3.org/Graphics/SVG/1.1/DTD/svg11.dtd">
<svg xmlns="http://www.w3.org/2000/svg" version="1.1" width="766px" height="814px" style="shape-rendering:geometricPrecision; text-rendering:geometricPrecision; image-rendering:optimizeQuality; fill-rule:evenodd; clip-rule:evenodd" xmlns:xlink="http://www.w3.org/1999/xlink">
<g><path style="opacity:0.972" fill="#030101" d="M 439.5,-0.5 C 448.5,-0.5 457.5,-0.5 466.5,-0.5C 511.832,10.6779 533.998,39.6779 533,86.5C 528.248,107.737 522.914,128.737 517,149.5C 594.333,226.833 671.667,304.167 749,381.5C 756.966,392.429 762.466,404.429 765.5,417.5C 765.5,426.167 765.5,434.833 765.5,443.5C 762.466,456.571 756.966,468.571 749,479.5C 713.667,514.833 678.333,550.167 643,585.5C 642.38,622.268 625.547,648.435 592.5,664C 581.786,667.508 570.786,669.174 559.5,669C 516.833,711.667 474.167,754.333 431.5,797C 420.571,804.966 408.571,810.466 395.5,813.5C 386.833,813.5 378.167,813.5 369.5,813.5C 356.429,810.466 344.429,804.966 333.5,797C 227.667,691.167 121.833,585.333 16,479.5C 8.0337,468.571 2.5337,456.571 -0.5,443.5C -0.5,434.833 -0.5,426.167 -0.5,417.5C 2.5337,404.429 8.0337,392.429 16,381.5C 121.5,276 227,170.5 332.5,65C 346.592,54.0225 362.592,47.8559 380.5,46.5C 392.195,20.8035 411.861,5.13687 439.5,-0.5 Z"/></g>
<g><path style="opacity:1" fill="#fefefe" d="M 440.5,11.5 C 474.868,7.92901 500.034,21.2623 516,51.5C 522.987,68.6606 523.321,85.9939 517,103.5C 512.802,116.429 508.802,129.429 505,142.5C 476.935,223.362 449.268,304.362 422,385.5C 413.116,415.582 405.116,445.916 398,476.5C 396.094,486.084 394.927,495.751 394.5,505.5C 454.553,510.448 514.553,515.948 574.5,522C 605.314,529.781 623.814,549.281 630,580.5C 631.637,617.394 615.137,642.227 580.5,655C 568.067,657.307 555.733,656.974 543.5,654C 496.785,650.48 450.119,646.48 403.5,642C 383.988,639.748 364.655,636.415 345.5,632C 295.136,617.144 266.303,583.644 259,531.5C 257.703,510.71 258.703,490.044 262,469.5C 272.8,418.164 286.134,367.497 302,317.5C 322.741,255.609 344.075,193.942 366,132.5C 374.943,106.005 383.276,79.3386 391,52.5C 400.86,30.6738 417.36,17.0071 440.5,11.5 Z"/></g>
<g><path style="opacity:1" fill="#0a0a0a" d="M 446.5,62.5 C 448.199,62.3398 449.866,62.5065 451.5,63C 455.424,66.4169 458.757,70.2503 461.5,74.5C 458.833,80.5 454.5,84.8333 448.5,87.5C 443.289,84.4564 439.289,80.2897 436.5,75C 436.667,74.1667 436.833,73.3333 437,72.5C 440.371,69.2975 443.538,65.9641 446.5,62.5 Z"/></g>
<g><path style="opacity:1" fill="#cb0000" d="M 367.5,63.5 C 369.833,63.5 372.167,63.5 374.5,63.5C 371.848,75.2912 368.682,86.9578 365,98.5C 338.268,175.362 311.935,252.362 286,329.5C 271.992,373.866 260.325,418.866 251,464.5C 244.386,495.688 245.053,526.688 253,557.5C 268.288,605.114 300.454,634.281 349.5,645C 362.782,647.612 376.115,649.945 389.5,652C 439.763,657.447 490.096,661.947 540.5,665.5C 501.014,705.486 461.347,745.32 421.5,785C 395.469,802.886 369.469,802.886 343.5,785C 238.333,679.833 133.167,574.667 28,469.5C 10.1143,443.469 10.1143,417.469 28,391.5C 132.833,286.667 237.667,181.833 342.5,77C 350.034,70.9017 358.367,66.4017 367.5,63.5 Z"/></g>
<g><path style="opacity:1" fill="#040404" d="M 461.5,111.5 C 462.873,111.343 464.207,111.51 465.5,112C 471.294,117.117 476.294,122.784 480.5,129C 476.629,134.881 471.962,140.215 466.5,145C 464.5,145.667 462.5,145.667 460.5,145C 454.864,140.207 450.197,134.707 446.5,128.5C 451.12,122.544 456.12,116.877 461.5,111.5 Z"/></g>
<g><path style="opacity:1" fill="#0a0a0a" d="M 408.5,148.5 C 420.927,152.576 421.594,158.242 410.5,165.5C 407.167,162.833 404.167,159.833 401.5,156.5C 403.856,153.814 406.189,151.147 408.5,148.5 Z"/></g>
<g><path style="opacity:1" fill="#cb0000" d="M 509.5,164.5 C 585.465,239.965 661.299,315.632 737,391.5C 753.917,415.44 754.917,440.107 740,465.5C 706.695,499.806 673.028,533.806 639,567.5C 625.423,530.094 598.589,510.261 558.5,508C 508.215,504.158 458.049,499.658 408,494.5C 408.705,482.331 410.705,470.331 414,458.5C 419.863,435.384 426.196,412.384 433,389.5C 458.014,314.29 483.514,239.29 509.5,164.5 Z"/></g>
<g><path style="opacity:1" fill="#fefbfb" d="M 167.5,327.5 C 169.527,327.338 171.527,327.505 173.5,328C 181.333,335.833 189.167,343.667 197,351.5C 197.667,353.833 197.667,356.167 197,358.5C 189.167,366.333 181.333,374.167 173.5,382C 170.12,382.938 167.12,382.271 164.5,380C 158,373.5 151.5,367 145,360.5C 143,356.833 143,353.167 145,349.5C 152.395,341.937 159.895,334.603 167.5,327.5 Z"/></g>
<g><path style="opacity:1" fill="#fef8f8" d="M 117.5,359.5 C 119.655,359.372 121.655,359.872 123.5,361C 127.667,365.167 131.833,369.333 136,373.5C 136.667,375.5 136.667,377.5 136,379.5C 131.5,384 127,388.5 122.5,393C 120.5,393.667 118.5,393.667 116.5,393C 110.864,388.207 106.197,382.707 102.5,376.5C 107.12,370.544 112.12,364.877 117.5,359.5 Z"/></g>
<g><path style="opacity:1" fill="#fefafa" d="M 113.5,418.5 C 115.655,418.372 117.655,418.872 119.5,420C 125,425.5 130.5,431 136,436.5C 136.755,439.303 136.422,441.97 135,444.5C 130.167,449.333 125.333,454.167 120.5,459C 117.97,460.422 115.303,460.755 112.5,460C 105.71,453.885 99.71,447.219 94.5,440C 94.6251,438.373 95.1251,436.873 96,435.5C 101.729,429.603 107.562,423.936 113.5,418.5 Z"/></g>
<g><path style="opacity:1" fill="#fef9f8" d="M 450.5,678.5 C 452.527,678.338 454.527,678.505 456.5,679C 462.136,683.793 466.803,689.293 470.5,695.5C 465.833,702.167 460.167,707.833 453.5,712.5C 447.629,709.139 442.462,704.806 438,699.5C 436.627,697.305 436.294,694.971 437,692.5C 441.703,687.965 446.203,683.298 450.5,678.5 Z"/></g>
</svg>
